<svg width="25" height="24" viewBox="0 0 25 24" fill="none" xmlns="http://www.w3.org/2000/svg">
<g clip-path="url(#clip0_1658_4914)">
<rect x="0.5" width="6" height="6" fill="#D9D9D9"/>
<rect x="24.5" y="12" width="6" height="6" transform="rotate(-180 24.5 12)" fill="#D9D9D9"/>
<rect x="6.5" width="6" height="6" fill="white"/>
<rect x="18.5" y="12" width="6" height="6" transform="rotate(-180 18.5 12)" fill="white"/>
<rect x="12.5" width="6" height="6" fill="#D9D9D9"/>
<rect x="12.5" y="12" width="6" height="6" transform="rotate(-180 12.5 12)" fill="#D9D9D9"/>
<rect x="18.5" width="6" height="6" fill="white"/>
<rect x="6.5" y="12" width="6" height="6" transform="rotate(-180 6.5 12)" fill="white"/>
<rect x="0.5" y="12" width="6" height="6" fill="#D9D9D9"/>
<rect x="24.5" y="24" width="6" height="6" transform="rotate(-180 24.5 24)" fill="#D9D9D9"/>
<rect x="6.5" y="12" width="6" height="6" fill="white"/>
<rect x="18.5" y="24" width="6" height="6" transform="rotate(-180 18.5 24)" fill="white"/>
<rect x="12.5" y="12" width="6" height="6" fill="#D9D9D9"/>
<rect x="12.5" y="24" width="6" height="6" transform="rotate(-180 12.5 24)" fill="#D9D9D9"/>
<rect x="18.5" y="12" width="6" height="6" fill="white"/>
<rect x="6.5" y="24" width="6" height="6" transform="rotate(-180 6.5 24)" fill="white"/>
</g>
<defs>
<clipPath id="clip0_1658_4914">
<rect x="0.5" width="24" height="24" rx="5" fill="white"/>
</clipPath>
</defs>
</svg>
