<svg width="44" height="45" viewBox="0 0 44 45" fill="none" xmlns="http://www.w3.org/2000/svg">
<rect y="0.5" width="44" height="44" rx="10" fill="#E18D24"/>
<path d="M22.3611 7.57129C14.273 7.57129 7.71924 14.2421 7.71924 22.4858C7.71924 30.7295 14.273 37.3892 22.3611 37.3892C30.4492 37.3892 37.014 30.7183 37.014 22.4858C37.014 14.2532 30.4602 7.57129 22.3611 7.57129ZM22.3611 36.1509C14.9525 36.1509 8.93574 30.0156 8.93574 22.4858C8.93574 14.956 14.9635 8.82067 22.3611 8.82067C29.7588 8.82067 35.7865 14.956 35.7865 22.4858C35.7865 30.0156 29.7588 36.1509 22.3611 36.1509Z" fill="white"/>
<path d="M25.5391 25.9664C24.9364 26.7696 23.8185 26.9257 23.0294 26.3122C22.2403 25.6987 22.0869 24.5609 22.6897 23.7577C23.2924 22.9545 28.9804 18.3809 28.9804 18.3809C28.9804 18.3809 26.1419 25.1632 25.5391 25.9664Z" fill="white"/>
<path d="M25.276 23.3893C26.0651 24.0028 26.2185 25.1518 25.6157 25.9438C25.0129 26.747 23.8951 26.9032 23.106 26.2896C22.3169 25.6761 15.7412 18.269 15.7412 18.269C15.7412 18.269 24.4869 22.7757 25.276 23.3893Z" fill="white"/>
</svg>
