<svg width="45" height="46" viewBox="0 0 45 46" fill="none" xmlns="http://www.w3.org/2000/svg">
<rect y="0.5" width="45" height="45" rx="10" fill="#E18D24"/>
<path d="M21.1839 36.0724C20.6214 36.3986 20.1714 36.1286 20.1714 35.4874V30.6724C20.1714 30.0311 20.1714 28.9736 20.1714 28.3211V23.5061C20.1714 22.8649 20.6326 22.5949 21.1951 22.9211L28.4289 28.9174C28.9914 29.2436 28.9914 29.7724 28.4289 30.0874L21.1839 36.0611V36.0724Z" fill="white"/>
<path d="M36.3261 17.8701H8.22363V38.4351H36.3261V17.8701Z" stroke="white" stroke-width="0.76" stroke-miterlimit="10"/>
<path d="M21.3751 12.7623L19.9126 16.9023L21.7463 16.2611L23.2088 12.1323L21.3751 12.7623Z" fill="white"/>
<path d="M25.9986 11.165L24.5361 15.2937L35.1786 11.6038L34.0649 8.375L25.9986 11.165Z" fill="white"/>
<path d="M15.9976 14.63L14.5464 18.7587L17.1226 17.87L18.5851 13.73L15.9976 14.63Z" fill="white"/>
<path d="M7.875 17.4427L9 20.6827L11.7563 19.7264L13.2075 15.5977L7.875 17.4427Z" fill="white"/>
<path d="M36.3261 17.8701H8.22363V20.9189H36.3261V17.8701Z" fill="white"/>
</svg>
