<svg width="45" height="45" viewBox="0 0 45 45" fill="none" xmlns="http://www.w3.org/2000/svg">
<rect y="0.5" width="45" height="44" rx="10" fill="#E18D24"/>
<path d="M34.0554 7.57129H11.6942C9.59572 7.57129 7.89453 9.26437 7.89453 11.3529V33.6075C7.89453 35.6961 9.59572 37.3891 11.6942 37.3891H34.0554C36.1539 37.3891 37.8551 35.6961 37.8551 33.6075V11.3529C37.8551 9.26437 36.1539 7.57129 34.0554 7.57129Z" stroke="white" stroke-width="0.71" stroke-miterlimit="10"/>
<path d="M23.2617 10.6611H15.5054C13.0171 10.6611 10.9995 12.6691 10.9995 15.1455V22.8649C10.9995 25.3414 13.0171 27.3493 15.5054 27.3493H23.2617C25.75 27.3493 27.7675 25.3414 27.7675 22.8649V15.1455C27.7675 12.6691 25.75 10.6611 23.2617 10.6611ZM26.0863 22.8649C26.0863 24.4155 24.8197 25.676 23.2617 25.676H15.5054C13.9474 25.676 12.6808 24.4155 12.6808 22.8649V15.1455C12.6808 13.595 13.9474 12.3344 15.5054 12.3344H23.2617C24.8197 12.3344 26.0863 13.595 26.0863 15.1455V22.8649Z" fill="white"/>
<path d="M19.4058 14.7886C17.0744 14.7886 15.1802 16.6738 15.1802 18.9941C15.1802 21.3144 17.0744 23.1996 19.4058 23.1996C21.7372 23.1996 23.6314 21.3144 23.6314 18.9941C23.6314 16.6738 21.7372 14.7886 19.4058 14.7886ZM19.4058 21.5709C17.9823 21.5709 16.8166 20.4108 16.8166 18.9941C16.8166 17.5774 17.9823 16.4172 19.4058 16.4172C20.8293 16.4172 21.995 17.5774 21.995 18.9941C21.995 20.4108 20.8293 21.5709 19.4058 21.5709Z" fill="white"/>
<path d="M23.6762 13.729C23.0933 13.729 22.6226 14.1975 22.6226 14.7776C22.6226 15.3577 23.0933 15.8262 23.6762 15.8262C24.259 15.8262 24.7298 15.3577 24.7298 14.7776C24.7298 14.1975 24.259 13.729 23.6762 13.729Z" fill="white"/>
<path d="M32.9902 20.98H24.0121C22.7455 20.98 21.7031 22.0063 21.7031 23.2779V32.2133C21.7031 33.4738 22.7343 34.5112 24.0121 34.5112H32.9902C34.2567 34.5112 35.2991 33.485 35.2991 32.2133V23.2779C35.2991 22.0174 34.2679 20.98 32.9902 20.98ZM31.0511 24.4827H30.0199C30.0199 24.4827 29.2577 24.4158 29.2577 25.2413V26.4014H30.9838L30.7821 28.1528H29.2577V32.6706H27.4531V28.1528H25.9512V26.4014H27.4531V25.4644C27.4531 25.4644 27.1393 22.7983 29.9414 22.7983L31.0623 22.8987V24.4827H31.0511Z" fill="white"/>
</svg>
