<svg width="45" height="46" viewBox="0 0 45 46" fill="none" xmlns="http://www.w3.org/2000/svg">
<rect y="0.5" width="45" height="45" rx="10" fill="#E18D24"/>
<path d="M32.9058 8.53564H12.6071C10.4405 8.53564 8.68408 10.3234 8.68408 12.5287V33.1899C8.68408 35.3952 10.4405 37.183 12.6071 37.183H32.9058C35.0724 37.183 36.8288 35.3952 36.8288 33.1899V12.5287C36.8288 10.3234 35.0724 8.53564 32.9058 8.53564Z" stroke="white" stroke-width="0.71" stroke-miterlimit="10"/>
<path d="M22.2689 14.7648H22.2241C20.4419 14.8561 18.8055 14.8903 17.3595 14.8903C15.9136 14.8903 14.4117 14.8447 12.8761 14.7648H12.8425L12.6968 14.8903V14.9474C12.764 15.7346 12.7864 16.6358 12.7752 17.7197V17.8224H14.0082V17.7311C14.0978 16.5332 14.1203 16.2936 14.1315 16.248C14.1427 16.2023 14.1651 16.1681 14.1763 16.1567C14.1875 16.1567 14.2548 16.1225 14.6134 16.0882C15.0954 16.0426 15.7231 16.0198 16.3956 16.0198C16.6758 16.0198 16.7879 16.0312 16.8327 16.0426C16.8327 16.2251 16.844 17.0123 16.844 19.4424C16.844 20.5947 16.844 19.682 16.8215 20.7886C16.7991 22.3288 16.7655 24.3938 16.7319 24.622C16.6982 24.8159 16.6534 24.8958 16.6198 24.93C16.5862 24.9642 16.5189 25.0099 16.362 25.0441C16.0706 25.1011 15.3084 25.124 15.0282 25.124H14.9385V26.6071H15.0282C15.6783 26.5615 16.5413 26.5386 17.6061 26.5386C18.4132 26.5386 19.1753 26.5614 19.8927 26.5957H19.9824V25.124H19.9039C18.996 25.0327 18.3459 24.9756 18.3235 24.9528C18.2899 24.93 18.2114 24.8045 18.1778 24.3367C18.1554 23.9603 18.1441 21.7812 18.1441 20.1269L18.189 16.4077C18.189 16.0996 18.2002 16.0198 18.189 16.0198C18.189 16.0198 18.2226 16.0084 18.3011 16.0084C19.4555 16.0084 20.2626 16.0426 20.6549 16.1225C20.7894 16.1453 20.823 16.1909 20.823 16.2023C20.8342 16.2365 20.8903 16.4647 20.9463 17.7197V17.8109H22.1568V17.7083C22.2017 16.6587 22.2689 15.7802 22.3586 15.0044V14.9702L22.2353 14.7534L22.2689 14.7648Z" fill="white"/>
<path d="M32.8274 15.3809H23.9502V17.5599H32.8274V15.3809Z" fill="white"/>
<path d="M32.8274 23.8345H23.9502V26.0135H32.8274V23.8345Z" fill="white"/>
<path d="M32.8274 19.6021H23.9502V21.7811H32.8274V19.6021Z" fill="white"/>
<path d="M32.8162 29.0142H12.6968V30.9422H32.8162V29.0142Z" fill="white"/>
</svg>
