<svg width="45" height="46" viewBox="0 0 45 46" fill="none" xmlns="http://www.w3.org/2000/svg">
<rect y="0.5" width="45" height="45" rx="10" fill="#E18D24"/>
<path d="M37.3495 26.3712C39.2507 18.1722 34.2619 9.95683 26.2068 8.0217C18.1516 6.08656 10.0804 11.1644 8.17922 19.3634C6.27803 27.5624 11.2668 35.7777 19.3219 37.7129C27.3771 39.648 35.4483 34.5701 37.3495 26.3712Z" stroke="white" stroke-width="0.71" stroke-miterlimit="10"/>
<path d="M13.4499 14.7967C13.4499 14.7967 16.6219 19.0978 22.5176 19.5086C22.5176 19.5086 21.7554 14.4203 26.7208 13.9639C26.7208 13.9639 28.6375 13.7357 30.1394 15.3786C30.1394 15.3786 31.3051 15.1732 32.8855 14.329C32.8855 14.329 32.6389 15.6752 31.0585 16.7362C31.0585 16.7362 31.9104 16.8047 33.5132 16.0745C33.5132 16.0745 32.2803 17.8657 31.3051 18.3677C31.3051 18.3677 31.7983 23.5472 28.0658 27.6202C28.0658 27.6202 24.6696 32.0125 18.7739 31.83C18.7739 31.83 15.1311 31.8528 12.0264 29.8335C12.0264 29.8335 15.8485 30.267 18.4601 27.9054C18.4601 27.9054 15.7588 28.1107 14.3914 24.8136C14.3914 24.8136 15.4898 25.0646 16.3305 24.6995C16.3305 24.6995 13.0239 24.1291 12.8222 20.2843C12.8222 20.2843 13.9654 20.8776 14.7837 20.7863C14.7837 20.7863 11.522 18.4475 13.4386 14.8082L13.4499 14.7967Z" fill="white"/>
</svg>
