<svg width="45" height="45" viewBox="0 0 45 45" fill="none" xmlns="http://www.w3.org/2000/svg">
<rect y="0.5" width="45" height="44" rx="10" fill="#E18D24"/>
<path d="M31.466 17.8786C29.7848 13.9185 25.2117 12.0779 21.2438 13.7512C17.9037 15.1679 16.0543 18.6372 16.5698 22.0618C16.6931 22.0061 16.8164 21.9503 16.9397 21.8945C20.8403 20.2435 25.3125 21.9949 27.0723 25.81C27.8905 25.598 29.1235 25.4642 30.1883 26.0219C32.0713 23.8467 32.6766 20.712 31.4773 17.8898L31.466 17.8786Z" fill="white"/>
<path d="M22.0503 10.9734L19.0464 8.05078L19.0576 12.234L22.0503 10.9734Z" fill="white"/>
<path d="M16.9846 13.9965L12.8486 13.3271L15.2585 16.7406L16.9846 13.9965Z" fill="white"/>
<path d="M31.6787 26.9927L35.8147 27.662L33.3936 24.2485L31.6787 26.9927Z" fill="white"/>
<path d="M14.5747 19.3735L10.7974 21.1918L14.7428 22.6085L14.5747 19.3735Z" fill="white"/>
<path d="M34.0885 21.6159L37.8546 19.7976L33.9204 18.3809L34.0885 21.6159Z" fill="white"/>
<path d="M30.9619 13.2719L32.9683 15.8265L35.0082 12.1787L30.9619 13.2719Z" fill="white"/>
<path d="M28.3053 7.57129L25.6152 10.784L28.72 11.7322L28.3053 7.57129Z" fill="white"/>
<path d="M27.3975 27.5615C26.837 27.5615 26.2766 27.6619 25.7386 27.8516L25.2342 28.03L24.9876 27.5503C23.8219 25.2858 21.5017 23.8691 18.9462 23.8691C15.2025 23.8691 12.1538 26.9034 12.1538 30.6292V31.3431L11.4476 31.2873C11.2907 31.265 11.1338 31.2427 10.9769 31.2427C9.27319 31.2427 7.89453 32.626 7.89453 34.3104C7.89453 35.9948 9.28439 37.3781 10.9769 37.3781H27.3975C30.1211 37.3781 32.3292 35.1693 32.3292 32.4586C32.3292 29.7479 30.1099 27.5503 27.3975 27.5503V27.5615ZM14.4403 29.8148C15.0792 27.5838 16.9174 25.9663 19.0919 25.9663C20.1567 25.9663 21.1655 26.3568 21.9949 27.0484C18.5091 26.6133 15.9311 28.3759 14.4515 29.8037L14.4403 29.8148Z" fill="white"/>
</svg>
