<svg width="44" height="46" viewBox="0 0 44 46" fill="none" xmlns="http://www.w3.org/2000/svg">
<rect y="0.5" width="44" height="45" rx="10" fill="#E18D24"/>
<path d="M32.1747 8.53564H12.327C10.2086 8.53564 8.49121 10.3234 8.49121 12.5287V33.1899C8.49121 35.3952 10.2086 37.183 12.327 37.183H32.1747C34.2932 37.183 36.0105 35.3952 36.0105 33.1899V12.5287C36.0105 10.3234 34.2932 8.53564 32.1747 8.53564Z" stroke="white" stroke-width="0.76" stroke-miterlimit="10"/>
<path d="M15.8779 10.4292H17.3136L18.2781 14.0686L19.1877 10.4292H20.5357L18.9356 16.0423V19.7387H17.5986V16.0993L15.8779 10.4292Z" fill="white"/>
<path d="M22.3769 12.7339H22.366C21.3796 12.7339 20.5796 13.5667 20.5796 14.5935V18.0275C20.5796 19.0543 21.3796 19.8872 22.366 19.8872H22.3769C23.3633 19.8872 24.1633 19.0543 24.1633 18.0275V14.5935C24.1633 13.5667 23.3633 12.7339 22.3769 12.7339ZM22.914 18.1759C22.914 18.4953 22.6729 18.7463 22.366 18.7463C22.0591 18.7463 21.818 18.4953 21.818 18.1759V14.4338C21.818 14.1143 22.0591 13.8634 22.366 13.8634C22.6729 13.8634 22.914 14.1143 22.914 14.4338V18.1759Z" fill="white"/>
<path d="M25.1721 12.8022V18.7918C25.1721 18.7918 25.1283 19.8985 25.9941 19.8985C26.8599 19.8985 27.4517 19.0428 27.4517 19.0428V19.7958H28.6134V12.8136H27.4188V18.1301C27.4188 18.1301 27.2215 18.6321 26.6845 18.7576C26.6845 18.7576 26.3338 18.826 26.3338 18.1872V12.8136H25.1611L25.1721 12.8022Z" fill="white"/>
<path d="M29.3252 27.4632C29.3252 27.1551 29.0841 26.9155 28.7992 26.9155C28.4923 26.9155 28.2402 27.1779 28.2402 27.4974V28.4671H29.3362V27.4632H29.3252Z" fill="white"/>
<path d="M24.4154 26.9382C24.1743 26.9838 23.999 27.0865 23.8784 27.1778V31.2507C23.8784 31.2507 24.2291 31.5473 24.525 31.5359C24.8319 31.5245 24.9196 31.1594 24.9196 31.1594L24.9524 27.52C24.9524 27.52 24.9525 26.8469 24.4154 26.9382Z" fill="white"/>
<path d="M32.0434 24.4853C31.616 21.9982 30.4104 21.7472 29.7528 21.6787C29.172 21.6217 24.6895 21.4506 23.0675 21.462C22.5415 21.462 21.3031 21.462 21.3031 21.462C19.5824 21.462 15.3301 21.6217 14.7602 21.6787C14.0917 21.7472 12.8862 21.9982 12.4697 24.4853C12.0423 26.9724 12.3272 31.1594 12.5683 32.6083C12.8095 34.0572 13.5985 34.8216 14.5411 34.9699C15.4836 35.1182 21.9278 35.2323 21.9278 35.2323H22.5963C22.5963 35.2323 29.0405 35.1182 29.983 34.9699C30.9255 34.8216 31.7146 34.0572 31.9557 32.6083C32.1968 31.1594 32.4817 26.9724 32.0543 24.4853H32.0434ZM18.1029 24.8846H16.733V32.5284H15.4617V24.8846H14.1136V23.6524H18.1138V24.8846H18.1029ZM21.6428 32.5513H20.5359V31.8439C20.5359 31.8439 19.977 32.6653 19.144 32.6653C18.3111 32.6653 18.355 31.6157 18.355 31.6157V25.9228H19.4728V31.0339C19.4728 31.6386 19.8016 31.5815 19.8016 31.5815C20.3057 31.4674 20.4921 30.9883 20.4921 30.9883V25.9342H21.6318V32.5741L21.6428 32.5513ZM24.8868 32.6539C24.8868 32.6539 24.3936 32.6539 23.8566 31.9352V32.5513H22.684V23.6296H23.8566V26.5845C23.8566 26.5845 24.3388 25.7174 25.1718 25.8315C26.0047 25.9456 26.0595 26.9153 26.0595 26.9153V30.7943C26.0595 30.7943 26.2896 32.768 24.8868 32.6653V32.6539ZM30.1474 31.958C29.7419 32.3231 29.3035 32.7908 28.2404 32.5398C27.1774 32.2889 27.0239 30.8856 27.0239 30.8856V27.5428C27.0239 27.5428 27.1445 25.8087 28.7007 25.8087C30.257 25.8087 30.4214 27.212 30.4214 27.212C30.4214 27.212 30.4981 27.828 30.509 28.079C30.52 28.33 30.509 29.4253 30.509 29.4253H28.1747V30.8742C28.1747 30.8742 28.3171 31.5701 28.7774 31.5359C29.2377 31.5017 29.2816 31.1594 29.3145 30.9997C29.3473 30.8399 29.3473 30.2353 29.3473 30.2353H30.531C30.531 30.2353 30.5748 31.6043 30.1583 31.958H30.1474Z" fill="white"/>
</svg>
