<svg width="21" height="20" viewBox="0 0 21 20" fill="none" xmlns="http://www.w3.org/2000/svg">
<path d="M10.4997 4.99992V3.33325M10.4997 4.99992C10.0576 4.99992 9.63372 5.17551 9.32116 5.48807C9.0086 5.80063 8.83301 6.22456 8.83301 6.66659C8.83301 7.10861 9.0086 7.53254 9.32116 7.8451C9.63372 8.15766 10.0576 8.33325 10.4997 8.33325M10.4997 4.99992C10.9417 4.99992 11.3656 5.17551 11.6782 5.48807C11.9907 5.80063 12.1663 6.22456 12.1663 6.66659C12.1663 7.10861 11.9907 7.53254 11.6782 7.8451C11.3656 8.15766 10.9417 8.33325 10.4997 8.33325M10.4997 8.33325L10.4997 16.6666M5.49967 14.9999C5.9417 14.9999 6.36563 14.8243 6.67819 14.5118C6.99075 14.1992 7.16634 13.7753 7.16634 13.3333C7.16634 12.8912 6.99075 12.4673 6.67819 12.1547C6.36563 11.8422 5.9417 11.6666 5.49967 11.6666M5.49967 14.9999C5.05765 14.9999 4.63372 14.8243 4.32116 14.5118C4.0086 14.1992 3.83301 13.7753 3.83301 13.3333C3.83301 12.8912 4.0086 12.4673 4.32116 12.1547C4.63372 11.8422 5.05765 11.6666 5.49967 11.6666M5.49967 14.9999V16.6666M5.49967 11.6666L5.49967 3.33325M15.4997 14.9999C15.9417 14.9999 16.3656 14.8243 16.6782 14.5118C16.9907 14.1992 17.1663 13.7753 17.1663 13.3333C17.1663 12.8912 16.9907 12.4673 16.6782 12.1547C16.3656 11.8422 15.9417 11.6666 15.4997 11.6666M15.4997 14.9999C15.0576 14.9999 14.6337 14.8243 14.3212 14.5118C14.0086 14.1992 13.833 13.7753 13.833 13.3333C13.833 12.8912 14.0086 12.4673 14.3212 12.1547C14.6337 11.8422 15.0576 11.6666 15.4997 11.6666M15.4997 14.9999V16.6666M15.4997 11.6666L15.4997 3.33325" stroke="#888888" stroke-width="2" stroke-linecap="round" stroke-linejoin="round"/>
</svg>
