<svg width="23" height="22" viewBox="0 0 23 22" fill="none" xmlns="http://www.w3.org/2000/svg">
<path d="M12.9648 4.94974L17.2075 9.19238L8.63749 17.7624L4.12969 18.0275L4.39485 13.5197L12.9648 4.94974Z" stroke="#E18D24" stroke-width="2"/>
<mask id="path-2-inside-1_1658_4910" fill="white">
<path d="M13.6716 2.82843C15.2337 1.26633 17.7663 1.26633 19.3284 2.82843C20.8905 4.39052 20.8905 6.92318 19.3284 8.48528L17.9142 9.89949L12.2574 4.24264L13.6716 2.82843Z"/>
</mask>
<path d="M12.2574 1.41421C14.6005 -0.928932 18.3995 -0.928932 20.7426 1.41421C23.0858 3.75736 23.0858 7.55635 20.7426 9.89949L17.9142 7.07107C18.6953 6.29002 18.6953 5.02369 17.9142 4.24264C17.1332 3.46159 15.8668 3.46159 15.0858 4.24264L12.2574 1.41421ZM17.9142 9.89949L12.2574 4.24264L17.9142 9.89949ZM10.8431 2.82843L12.2574 1.41421C14.6005 -0.928932 18.3995 -0.928932 20.7426 1.41421L17.9142 4.24264C17.1332 3.46159 15.8668 3.46159 15.0858 4.24264L13.6716 5.65685L10.8431 2.82843ZM20.7426 1.41421C23.0858 3.75736 23.0858 7.55635 20.7426 9.89949L19.3284 11.3137L16.5 8.48528L17.9142 7.07107C18.6953 6.29002 18.6953 5.02369 17.9142 4.24264L20.7426 1.41421Z" fill="#E18D24" mask="url(#path-2-inside-1_1658_4910)"/>
</svg>
