<svg width="25" height="24" viewBox="0 0 25 24" fill="none" xmlns="http://www.w3.org/2000/svg">
<path d="M13.9648 5.94974L18.2075 10.1924L9.63749 18.7624L5.12969 19.0275L5.39485 14.5197L13.9648 5.94974Z" stroke="#E18D24" stroke-width="2"/>
<mask id="path-2-inside-1_2272_6236" fill="white">
<path d="M14.6716 3.82843C16.2337 2.26633 18.7663 2.26633 20.3284 3.82843C21.8905 5.39052 21.8905 7.92318 20.3284 9.48528L18.9142 10.8995L13.2574 5.24264L14.6716 3.82843Z"/>
</mask>
<path d="M13.2574 2.41421C15.6005 0.0710678 19.3995 0.0710678 21.7426 2.41421C24.0858 4.75736 24.0858 8.55635 21.7426 10.8995L18.9142 8.07107C19.6953 7.29002 19.6953 6.02369 18.9142 5.24264C18.1332 4.46159 16.8668 4.46159 16.0858 5.24264L13.2574 2.41421ZM18.9142 10.8995L13.2574 5.24264L18.9142 10.8995ZM11.8431 3.82843L13.2574 2.41421C15.6005 0.0710678 19.3995 0.0710678 21.7426 2.41421L18.9142 5.24264C18.1332 4.46159 16.8668 4.46159 16.0858 5.24264L14.6716 6.65685L11.8431 3.82843ZM21.7426 2.41421C24.0858 4.75736 24.0858 8.55635 21.7426 10.8995L20.3284 12.3137L17.5 9.48528L18.9142 8.07107C19.6953 7.29002 19.6953 6.02369 18.9142 5.24264L21.7426 2.41421Z" fill="#E18D24" mask="url(#path-2-inside-1_2272_6236)"/>
</svg>
