<svg width="21" height="20" viewBox="0 0 21 20" fill="none" xmlns="http://www.w3.org/2000/svg">
<path d="M10.6898 10.3726C10.632 10.4883 10.548 10.589 10.4445 10.6666L6.00033 13.9999C5.87652 14.0928 5.7293 14.1493 5.57516 14.1632C5.42103 14.1771 5.26607 14.1478 5.12765 14.0786C4.98923 14.0094 4.87281 13.903 4.79145 13.7714C4.71009 13.6397 4.66699 13.488 4.66699 13.3333V6.66659C4.66699 6.51183 4.71009 6.36012 4.79145 6.22848C4.87281 6.09683 4.98923 5.99044 5.12765 5.92123C5.26607 5.85202 5.42103 5.82272 5.57516 5.83662C5.7293 5.85052 5.87652 5.90706 6.00033 5.99992L10.4445 9.33325C10.548 9.41087 10.632 9.51153 10.6898 9.62724C10.7477 9.74295 10.7778 9.87055 10.7778 9.99992C10.7778 10.1293 10.7477 10.2569 10.6898 10.3726Z" stroke="#F1F1F1" stroke-width="2" stroke-linecap="round" stroke-linejoin="round"/>
<path d="M17.3565 10.3726C17.2987 10.4883 17.2147 10.589 17.1112 10.6666L12.667 13.9999C12.5432 14.0928 12.396 14.1493 12.2418 14.1632C12.0877 14.1771 11.9327 14.1478 11.7943 14.0786C11.6559 14.0094 11.5395 13.903 11.4581 13.7714C11.3768 13.6397 11.3337 13.488 11.3337 13.3333V6.66659C11.3337 6.51183 11.3768 6.36012 11.4581 6.22848C11.5395 6.09683 11.6559 5.99044 11.7943 5.92123C11.9327 5.85202 12.0877 5.82272 12.2418 5.83662C12.396 5.85052 12.5432 5.90706 12.667 5.99992L17.1112 9.33325C17.2147 9.41087 17.2987 9.51153 17.3565 9.62724C17.4144 9.74295 17.4445 9.87055 17.4445 9.99992C17.4445 10.1293 17.4144 10.2569 17.3565 10.3726Z" stroke="#F1F1F1" stroke-width="2" stroke-linecap="round" stroke-linejoin="round"/>
</svg>
