<svg width="21" height="20" viewBox="0 0 21 20" fill="none" xmlns="http://www.w3.org/2000/svg">
<path d="M11.9814 11.3726C12.3745 10.9796 12.5953 10.4464 12.5953 9.89055C12.5953 9.33466 12.3745 8.80153 11.9814 8.40846C11.5883 8.01538 11.0552 7.79456 10.4993 7.79456C9.94342 7.79456 9.4103 8.01538 9.01722 8.40846C8.62415 8.80153 8.40332 9.33466 8.40332 9.89055C8.40332 10.4464 8.62415 10.9796 9.01722 11.3726C9.4103 11.7657 9.94342 11.9865 10.4993 11.9865C11.0552 11.9865 11.5883 11.7657 11.9814 11.3726Z" stroke="white" stroke-width="2" stroke-linecap="round" stroke-linejoin="round"/>
<path d="M3.83301 9.89066C4.72311 7.05617 7.37175 5 10.4997 5C13.6283 5 16.2762 7.05617 17.1663 9.89066C16.2762 12.7251 13.6283 14.7813 10.4997 14.7813C7.37175 14.7813 4.72311 12.7251 3.83301 9.89066Z" stroke="white" stroke-width="1.5" stroke-linecap="round" stroke-linejoin="round"/>
</svg>
