<svg width="21" height="20" viewBox="0 0 21 20" fill="none" xmlns="http://www.w3.org/2000/svg">
<path d="M11.8958 3.5975C11.5408 2.13417 9.45917 2.13417 9.10417 3.5975C8.87417 4.54333 7.79083 4.99167 6.96083 4.485C5.67417 3.70167 4.2025 5.17417 4.98583 6.46C5.10359 6.65313 5.17407 6.87133 5.19156 7.09685C5.20904 7.32236 5.17303 7.54882 5.08645 7.75779C4.99988 7.96676 4.86518 8.15233 4.69333 8.29941C4.52148 8.44648 4.31733 8.5509 4.0975 8.60417C2.63417 8.95917 2.63417 11.0408 4.0975 11.3958C4.31714 11.4492 4.52107 11.5537 4.69273 11.7008C4.86438 11.8479 4.99892 12.0333 5.08539 12.2422C5.17187 12.451 5.20785 12.6773 5.1904 12.9027C5.17296 13.1281 5.10258 13.3461 4.985 13.5392C4.20167 14.8258 5.67417 16.2975 6.96 15.5142C7.15313 15.3964 7.37133 15.3259 7.59685 15.3084C7.82236 15.291 8.04882 15.327 8.25779 15.4135C8.46676 15.5001 8.65233 15.6348 8.79941 15.8067C8.94648 15.9785 9.0509 16.1827 9.10417 16.4025C9.45917 17.8658 11.5408 17.8658 11.8958 16.4025C11.9492 16.1829 12.0537 15.9789 12.2008 15.8073C12.3479 15.6356 12.5333 15.5011 12.7422 15.4146C12.951 15.3281 13.1773 15.2922 13.4027 15.3096C13.6281 15.327 13.8461 15.3974 14.0392 15.515C15.3258 16.2983 16.7975 14.8258 16.0142 13.54C15.8964 13.3469 15.8259 13.1287 15.8084 12.9032C15.791 12.6776 15.827 12.4512 15.9135 12.2422C16.0001 12.0332 16.1348 11.8477 16.3067 11.7006C16.4785 11.5535 16.6827 11.4491 16.9025 11.3958C18.3658 11.0408 18.3658 8.95917 16.9025 8.60417C16.6829 8.55075 16.4789 8.44627 16.3073 8.29921C16.1356 8.15215 16.0011 7.96666 15.9146 7.75782C15.8281 7.54897 15.7922 7.32267 15.8096 7.09731C15.827 6.87195 15.8974 6.65388 16.015 6.46083C16.7983 5.17417 15.3258 3.7025 14.04 4.48583C13.8469 4.60359 13.6287 4.67407 13.4032 4.69156C13.1776 4.70904 12.9512 4.67303 12.7422 4.58645C12.5332 4.49988 12.3477 4.36518 12.2006 4.19333C12.0535 4.02148 11.9491 3.81733 11.8958 3.5975Z" stroke="#888888" stroke-width="2" stroke-linecap="round" stroke-linejoin="round"/>
<path d="M12.2678 11.7678C12.7366 11.2989 13 10.663 13 10C13 9.33696 12.7366 8.70107 12.2678 8.23223C11.7989 7.76339 11.163 7.5 10.5 7.5C9.83696 7.5 9.20107 7.76339 8.73223 8.23223C8.26339 8.70107 8 9.33696 8 10C8 10.663 8.26339 11.2989 8.73223 11.7678C9.20107 12.2366 9.83696 12.5 10.5 12.5C11.163 12.5 11.7989 12.2366 12.2678 11.7678Z" stroke="#888888" stroke-width="2" stroke-linecap="round" stroke-linejoin="round"/>
</svg>
