<svg width="16" height="16" viewBox="0 0 16 16" fill="none" xmlns="http://www.w3.org/2000/svg">
<path d="M4.66683 1.33333H3.00016C2.55814 1.33333 2.13421 1.50893 1.82165 1.82149C1.50909 2.13405 1.3335 2.55797 1.3335 3V13C1.3335 13.442 1.50909 13.866 1.82165 14.1785C2.13421 14.4911 2.55814 14.6667 3.00016 14.6667H13.0002C13.4422 14.6667 13.8661 14.4911 14.1787 14.1785C14.4912 13.866 14.6668 13.442 14.6668 13V3C14.6668 2.55797 14.4912 2.13405 14.1787 1.82149C13.8661 1.50893 13.4422 1.33333 13.0002 1.33333H11.3335M8.00016 0.5V7.16667M8.00016 7.16667L10.5002 4.66667M8.00016 7.16667L5.50016 4.66667M1.3335 8.83333H3.4885C3.70949 8.83338 3.92142 8.92121 4.07766 9.0775L6.08933 11.0892C6.24557 11.2455 6.4575 11.3333 6.6785 11.3333H9.32183C9.54283 11.3333 9.75475 11.2455 9.911 11.0892L11.9227 9.0775C12.0789 8.92121 12.2908 8.83338 12.5118 8.83333H14.6668" stroke="#3F3F46" stroke-linecap="round" stroke-linejoin="round"/>
</svg>
