<svg width="49" height="49" viewBox="0 0 49 49" fill="none" xmlns="http://www.w3.org/2000/svg">
<path d="M24.01 46.02C36.1658 46.02 46.02 36.1658 46.02 24.01C46.02 11.8542 36.1658 2 24.01 2C11.8542 2 2 11.8542 2 24.01C2 36.1658 11.8542 46.02 24.01 46.02Z" fill="white" stroke="#E18D24" stroke-width="4" stroke-miterlimit="10"/>
<path d="M37.72 20.9599L30.29 16.6699V25.2499L37.72 20.9599Z" fill="#E18D24"/>
<path d="M19.1702 31.3502H11.6602V29.5102H19.1702C20.4302 29.5102 21.4502 28.4902 21.4502 27.2302V24.1102C21.4502 21.8402 23.3002 19.9902 25.5702 19.9902H33.0802V21.8302H25.5702C24.3102 21.8302 23.2902 22.8502 23.2902 24.1102V27.2302C23.2902 29.5002 21.4402 31.3502 19.1702 31.3502Z" fill="#E18D24"/>
</svg>
