<svg width="30" height="31" viewBox="0 0 30 31" fill="none" xmlns="http://www.w3.org/2000/svg">
<path fill-rule="evenodd" clip-rule="evenodd" d="M6 4.75C5.20435 4.75 4.44129 5.06607 3.87868 5.62868C3.31607 6.19129 3 6.95435 3 7.75V22.75C3 23.5456 3.31607 24.3087 3.87868 24.8713C4.44129 25.4339 5.20435 25.75 6 25.75H24C24.7956 25.75 25.5587 25.4339 26.1213 24.8713C26.6839 24.3087 27 23.5456 27 22.75V7.75C27 6.95435 26.6839 6.19129 26.1213 5.62868C25.5587 5.06607 24.7956 4.75 24 4.75H6ZM24 22.75H6L12 10.75L16.5 19.75L19.5 13.75L24 22.75Z" fill="#E18D24"/>
</svg>
