<svg width="15" height="10" viewBox="0 0 15 10" fill="none" xmlns="http://www.w3.org/2000/svg">
<path d="M7.18936 5.37269C7.1315 5.4884 7.0475 5.58905 6.944 5.66668L2.49984 9.00001C2.37603 9.09286 2.22881 9.14941 2.07468 9.16331C1.92054 9.17721 1.76558 9.14791 1.62716 9.0787C1.48874 9.00949 1.37232 8.9031 1.29096 8.77145C1.2096 8.63981 1.1665 8.4881 1.1665 8.33334V1.66668C1.1665 1.51192 1.2096 1.36021 1.29096 1.22857C1.37232 1.09692 1.48874 0.990532 1.62716 0.921321C1.76558 0.85211 1.92054 0.822813 2.07468 0.836711C2.22881 0.850609 2.37603 0.907154 2.49984 1.00001L6.944 4.33334C7.0475 4.41097 7.1315 4.51162 7.18936 4.62733C7.24722 4.74305 7.27734 4.87064 7.27734 5.00001C7.27734 5.12938 7.24722 5.25698 7.18936 5.37269Z" stroke="#3F3F46" stroke-linecap="round" stroke-linejoin="round"/>
<path d="M13.856 5.37269C13.7982 5.4884 13.7142 5.58905 13.6107 5.66668L9.1665 9.00001C9.0427 9.09286 8.89548 9.14941 8.74134 9.16331C8.58721 9.17721 8.43225 9.14791 8.29383 9.0787C8.1554 9.00949 8.03899 8.9031 7.95763 8.77145C7.87627 8.63981 7.83317 8.4881 7.83317 8.33334V1.66668C7.83317 1.51192 7.87627 1.36021 7.95763 1.22857C8.03899 1.09692 8.1554 0.990532 8.29383 0.921321C8.43225 0.85211 8.58721 0.822813 8.74134 0.836711C8.89548 0.850609 9.0427 0.907154 9.1665 1.00001L13.6107 4.33334C13.7142 4.41097 13.7982 4.51162 13.856 4.62733C13.9139 4.74305 13.944 4.87064 13.944 5.00001C13.944 5.12938 13.9139 5.25698 13.856 5.37269Z" stroke="#3F3F46" stroke-linecap="round" stroke-linejoin="round"/>
</svg>
