<svg width="357" height="29" viewBox="0 0 357 29" fill="none" xmlns="http://www.w3.org/2000/svg">
<g clip-path="url(#clip0_1432_4184)">
<path d="M13.9065 13.4192C13.7447 12.6512 13.204 12.1178 12.6973 12.2245C12.3652 12.2928 12.1352 12.6256 12.0586 13.0566C12.1438 12.7664 12.3183 12.5488 12.5568 12.5019C12.9783 12.4123 13.4254 12.8603 13.5616 13.496C13.6979 14.1361 13.4637 14.7249 13.0422 14.8145C12.808 14.8657 12.5695 14.7462 12.3737 14.5201C12.6164 14.8742 12.957 15.0705 13.2806 15.0022C13.7873 14.8956 14.064 14.1873 13.9022 13.4192H13.9065Z" fill="#939598"/>
<path d="M7.90299 8.04291C7.12381 6.0887 7.48572 3.84007 8.71198 3.02511C9.93824 2.21014 11.5605 3.13178 12.3397 5.09026C13.4126 7.78264 11.9224 11.0937 11.9224 11.0937C11.9224 11.0937 8.993 10.7908 7.90299 8.04291Z" fill="url(#paint0_linear_1432_4184)"/>
<path d="M15.8477 6.91221C17.074 6.09725 18.6962 7.02315 19.4754 8.97737C20.2546 10.9358 19.8884 13.1802 18.6664 13.9952C16.976 15.1174 14.4213 12.3439 14.4213 12.3439C14.4213 12.3439 14.1275 8.06 15.852 6.91221H15.8477Z" fill="url(#paint1_linear_1432_4184)"/>
<path d="M18.0234 19.1068C18.8025 21.061 18.4406 23.3097 17.2144 24.1246C15.9881 24.9396 14.3659 24.0137 13.5867 22.0595C12.5137 19.3671 14.004 16.056 14.004 16.056C14.004 16.056 16.9291 16.3547 18.0234 19.1068Z" fill="url(#paint2_linear_1432_4184)"/>
<path d="M9.9808 20.131C8.75454 20.9459 7.1323 20.0243 6.35312 18.0658C5.57393 16.1073 5.94011 13.863 7.16211 13.048C8.84821 11.9258 11.4072 14.6993 11.4072 14.6993C11.4072 14.6993 11.701 18.9832 9.97654 20.1267L9.9808 20.131Z" fill="url(#paint3_linear_1432_4184)"/>
<path d="M17.7 27.6662C11.7263 29.5394 4.90097 24.7093 2.45697 16.8796C0.242898 9.79241 2.38033 2.67531 7.23853 0C1.28181 1.89021 -1.56668 9.74121 0.873058 17.5581C3.31706 25.3877 10.1424 30.2135 16.1161 28.3447C16.6824 28.1654 17.2189 27.935 17.7256 27.6577C17.7171 27.6577 17.7086 27.662 17.7 27.6662Z" fill="#939598"/>
<path d="M95.0091 23.7875H88.3711V5.88379H95.0091C96.0991 5.88379 97.0401 6.12273 97.8278 6.60062C98.6197 7.07851 99.2414 7.73987 99.6927 8.5847C100.144 9.42954 100.472 10.3512 100.676 11.3496C100.881 12.3481 100.983 13.4446 100.983 14.6351C100.983 15.8255 100.876 16.9477 100.663 17.9846C100.451 19.0257 100.123 19.9942 99.6799 20.886C99.2371 21.7821 98.6155 22.4903 97.815 23.0109C97.0145 23.5315 96.0778 23.7917 95.0048 23.7917L95.0091 23.7875ZM98.9518 20.1948C99.318 19.367 99.5862 18.488 99.7566 17.5579C99.9269 16.6277 100.012 15.5567 100.012 14.3492C100.012 13.1417 99.8715 11.9726 99.5905 10.8589C99.3095 9.74102 98.7772 8.77671 97.9938 7.97028C97.2104 7.15958 96.214 6.75423 95.0091 6.75423H89.2908V22.9213H95.0091C95.9288 22.9213 96.725 22.6738 97.3977 22.1789C98.0705 21.6839 98.5899 21.0226 98.9561 20.1948H98.9518Z" fill="#E18D24"/>
<path d="M109.537 6.47273C106.51 6.47273 104.994 7.66745 104.994 10.0526C104.994 11.1279 105.173 11.9044 105.53 12.3823C105.735 12.6383 105.948 12.8559 106.169 13.0351C106.39 13.2143 106.714 13.3722 107.14 13.5088C107.838 13.7136 108.724 13.9013 109.797 14.072C111.653 14.3621 112.982 14.8101 113.791 15.416C114.6 16.0219 115.004 17.0844 115.004 18.5991C115.004 20.5277 114.557 21.9016 113.663 22.7294C112.769 23.5572 111.41 23.9711 109.592 23.9711C108.468 23.9711 106.961 23.8687 105.075 23.6638L104.13 23.5614L104.232 22.6654C106.578 22.9556 108.434 23.1006 109.797 23.1006C112.62 23.1006 114.033 21.6243 114.033 18.6759C114.033 17.43 113.71 16.5681 113.062 16.0945C112.415 15.6166 111.415 15.2752 110.065 15.0704C108.711 14.8656 107.749 14.6821 107.182 14.52C106.612 14.3579 106.058 14.1061 105.522 13.7648C104.985 13.4234 104.602 12.9583 104.372 12.3695C104.142 11.7807 104.027 11.0255 104.027 10.1038C104.027 7.10422 105.867 5.60229 109.541 5.60229C110.716 5.60229 112.13 5.7047 113.778 5.90951L114.621 6.01191L114.519 6.90795C112.185 6.6178 110.529 6.47273 109.541 6.47273H109.537Z" fill="#E18D24"/>
<path d="M31.5033 23.7877V6.3064H36.4424L41.7391 21.2916H42.1223V6.3064H44.9495V23.7919H40.1084L34.6839 8.78543H34.3262V23.7919H31.499L31.5033 23.7877Z" fill="#6D6E71"/>
<path d="M49.1903 12.4036C50.0632 11.2985 51.5194 10.7438 53.5589 10.7438C55.5984 10.7438 57.0503 11.2985 57.9274 12.4036C58.8003 13.5087 59.2388 15.1685 59.2388 17.383C59.2388 19.5975 58.813 21.2615 57.9657 22.3837C57.1142 23.5059 55.6495 24.0691 53.5589 24.0691C51.4683 24.0691 50.0036 23.5059 49.152 22.3837C48.3004 21.2615 47.8789 19.5932 47.8789 17.383C47.8789 15.1728 48.3175 13.513 49.1903 12.4036ZM51.2681 20.6983C51.6599 21.381 52.422 21.7181 53.5589 21.7181C54.6957 21.7181 55.4621 21.3768 55.8496 20.6983C56.2413 20.0199 56.4372 18.902 56.4372 17.3531C56.4372 15.8043 56.2285 14.7077 55.8113 14.0591C55.394 13.4106 54.6446 13.0905 53.5589 13.0905C52.4731 13.0905 51.7195 13.4148 51.3065 14.0591C50.8892 14.7077 50.6806 15.8043 50.6806 17.3531C50.6806 18.902 50.8764 20.0156 51.2681 20.6983Z" fill="#6D6E71"/>
<path d="M60.5882 11.0255H63.4921L65.9361 21.4153H66.7536L69.2998 11.0255H72.127L68.8144 23.7876H63.871L60.584 11.0255H60.5882Z" fill="#6D6E71"/>
<path d="M74.7889 12.4036C75.6618 11.2985 77.118 10.7438 79.1575 10.7438C81.197 10.7438 82.6489 11.2985 83.526 12.4036C84.3989 13.5087 84.8374 15.1685 84.8374 17.383C84.8374 19.5975 84.4117 21.2615 83.5644 22.3837C82.7128 23.5059 81.2481 24.0691 79.1575 24.0691C77.0669 24.0691 75.6022 23.5059 74.7506 22.3837C73.8991 21.2615 73.4775 19.5932 73.4775 17.383C73.4775 15.1728 73.9161 13.513 74.7889 12.4036ZM76.8668 20.6983C77.2585 21.381 78.0206 21.7181 79.1575 21.7181C80.2943 21.7181 81.0607 21.3768 81.4482 20.6983C81.8399 20.0199 82.0358 18.902 82.0358 17.3531C82.0358 15.8043 81.8272 14.7077 81.4099 14.0591C80.9926 13.4106 80.2432 13.0905 79.1575 13.0905C78.0717 13.0905 77.3181 13.4148 76.9051 14.0591C76.4878 14.7077 76.2792 15.8043 76.2792 17.3531C76.2792 18.902 76.4751 20.0156 76.8668 20.6983Z" fill="#6D6E71"/>
</g>
<path d="M134.589 4.2644L134.589 28.7501" stroke="#5F5F5F" stroke-width="0.489713"/>
<path d="M154.177 24.1387V10.1045H154.899V24.1387H154.177Z" fill="#5F5F5F"/>
<path d="M159.023 24.1387H158.321V14.1143H159.023V14.9162C160.213 14.2613 161.429 13.9339 162.672 13.9339C163.915 13.9339 164.75 14.2747 165.178 14.9563C165.606 15.6246 165.82 16.9479 165.82 18.926V24.1387H165.118V18.9661C165.118 17.2018 164.958 16.0323 164.637 15.4576C164.316 14.8695 163.614 14.5754 162.532 14.5754C161.997 14.5754 161.436 14.6623 160.848 14.8361C160.273 14.9964 159.825 15.1568 159.504 15.3172L159.023 15.5779V24.1387Z" fill="#5F5F5F"/>
<path d="M173.728 14.7559H170.079V20.0087C170.079 21.5457 170.186 22.5482 170.4 23.016C170.627 23.4704 171.135 23.6977 171.924 23.6977L173.889 23.5373L173.949 24.1788C173.067 24.2858 172.392 24.3392 171.924 24.3392C170.975 24.3392 170.313 24.0986 169.939 23.6175C169.565 23.1229 169.378 22.1739 169.378 20.7705V14.7559H167.794V14.1143H169.378V10.8463H170.079V14.1143H173.728V14.7559Z" fill="#5F5F5F"/>
<path d="M182.064 23.5373L182.666 23.4972L182.706 24.1387C181.209 24.259 179.973 24.3192 178.997 24.3192C177.58 24.3058 176.598 23.8781 176.05 23.036C175.502 22.1806 175.228 20.8774 175.228 19.1265C175.228 15.6647 176.578 13.9339 179.278 13.9339C180.547 13.9339 181.496 14.3148 182.125 15.0766C182.766 15.8385 183.087 17.0615 183.087 18.7456V19.4072H175.97C175.97 20.8507 176.197 21.9267 176.651 22.6351C177.106 23.3301 177.861 23.6776 178.917 23.6776C179.973 23.6776 181.022 23.6308 182.064 23.5373ZM175.97 18.7656H182.345C182.345 17.2553 182.098 16.1793 181.603 15.5378C181.122 14.8962 180.347 14.5754 179.278 14.5754C177.072 14.5754 175.97 15.9722 175.97 18.7656Z" fill="#5F5F5F"/>
<path d="M185.712 24.1387V14.1143H186.414V15.6781C186.815 15.3573 187.41 15.0165 188.198 14.6556C189 14.2814 189.729 14.0341 190.384 13.9138V14.6356C189.796 14.7559 189.167 14.9563 188.499 15.237C187.844 15.5177 187.336 15.7717 186.975 15.9989L186.414 16.3397V24.1387H185.712Z" fill="#5F5F5F"/>
<path d="M198.947 17.0615V22.8356C199.001 23.3167 199.502 23.5974 200.451 23.6776L200.411 24.2991C199.435 24.2991 198.747 24.0184 198.346 23.4571C196.982 24.0318 195.632 24.3192 194.296 24.3192C193.467 24.3192 192.819 24.0719 192.351 23.5774C191.897 23.0828 191.669 22.3811 191.669 21.4722C191.669 20.55 191.89 19.8483 192.331 19.3671C192.772 18.8859 193.474 18.5986 194.436 18.505L198.245 18.104V17.0615C198.245 16.2061 198.058 15.5845 197.684 15.1969C197.323 14.8093 196.769 14.6155 196.02 14.6155C195.258 14.6155 194.202 14.7024 192.852 14.8761L192.231 14.9563L192.171 14.2947C193.668 14.0541 194.951 13.9339 196.02 13.9339C197.971 13.9339 198.947 14.9764 198.947 17.0615ZM194.516 19.1265C193.754 19.2067 193.213 19.4272 192.892 19.7881C192.572 20.149 192.411 20.6903 192.411 21.4121C192.411 22.1338 192.572 22.6952 192.892 23.0962C193.227 23.4838 193.688 23.6776 194.276 23.6776C194.864 23.6776 195.485 23.6108 196.14 23.4771C196.795 23.3301 197.31 23.1897 197.684 23.0561L198.245 22.8556V18.7456L194.516 19.1265Z" fill="#5F5F5F"/>
<path d="M205.947 14.5754C204.677 14.5754 203.795 14.8962 203.3 15.5378C202.819 16.1793 202.578 17.3555 202.578 19.0664C202.578 20.7638 202.799 21.9601 203.24 22.6551C203.681 23.3368 204.583 23.6776 205.947 23.6776L208.352 23.4972L208.393 24.1387C207.27 24.259 206.454 24.3192 205.947 24.3192C204.316 24.3192 203.22 23.9382 202.659 23.1764C202.111 22.4012 201.837 21.0378 201.837 19.0864C201.837 17.1216 202.144 15.7717 202.759 15.0365C203.374 14.3014 204.436 13.9339 205.947 13.9339L208.352 14.1343L208.312 14.7759C207.243 14.6422 206.454 14.5754 205.947 14.5754Z" fill="#5F5F5F"/>
<path d="M215.745 14.7559H212.096V20.0087C212.096 21.5457 212.203 22.5482 212.417 23.016C212.644 23.4704 213.152 23.6977 213.94 23.6977L215.905 23.5373L215.965 24.1788C215.083 24.2858 214.408 24.3392 213.94 24.3392C212.991 24.3392 212.33 24.0986 211.955 23.6175C211.581 23.1229 211.394 22.1739 211.394 20.7705V14.7559H209.81V14.1143H211.394V10.8463H212.096V14.1143H215.745V14.7559Z" fill="#5F5F5F"/>
<path d="M217.665 24.1387V14.1143H218.367V24.1387H217.665ZM217.665 11.2072V10.1045H218.367V11.2072H217.665Z" fill="#5F5F5F"/>
<path d="M220.58 14.1143H221.402L224.228 23.4972H225.111L228.018 14.1143H228.76L225.652 24.1387H223.687L220.58 14.1143Z" fill="#5F5F5F"/>
<path d="M237.179 23.5373L237.781 23.4972L237.821 24.1387C236.324 24.259 235.087 24.3192 234.112 24.3192C232.695 24.3058 231.713 23.8781 231.165 23.036C230.617 22.1806 230.343 20.8774 230.343 19.1265C230.343 15.6647 231.693 13.9339 234.392 13.9339C235.662 13.9339 236.611 14.3148 237.239 15.0766C237.881 15.8385 238.202 17.0615 238.202 18.7456V19.4072H231.084C231.084 20.8507 231.312 21.9267 231.766 22.6351C232.22 23.3301 232.976 23.6776 234.032 23.6776C235.087 23.6776 236.137 23.6308 237.179 23.5373ZM231.084 18.7656H237.46C237.46 17.2553 237.213 16.1793 236.718 15.5378C236.237 14.8962 235.462 14.5754 234.392 14.5754C232.187 14.5754 231.084 15.9722 231.084 18.7656Z" fill="#5F5F5F"/>
<path d="M250.606 18.9862H246.215V24.1387H245.493V10.1045H250.606C252.049 10.1045 253.098 10.4587 253.753 11.1671C254.422 11.8621 254.756 12.9448 254.756 14.415C254.756 17.4625 253.372 18.9862 250.606 18.9862ZM246.215 18.3045H250.606C252.864 18.3045 253.994 17.008 253.994 14.415C253.994 13.1854 253.727 12.2765 253.192 11.6884C252.657 11.0869 251.795 10.7862 250.606 10.7862H246.215V18.3045Z" fill="#5F5F5F"/>
<path d="M257.276 24.1387V9.50305H257.978V24.1387H257.276Z" fill="#5F5F5F"/>
<path d="M267.924 17.0615V22.8356C267.977 23.3167 268.479 23.5974 269.428 23.6776L269.387 24.2991C268.412 24.2991 267.723 24.0184 267.322 23.4571C265.959 24.0318 264.609 24.3192 263.273 24.3192C262.444 24.3192 261.796 24.0719 261.328 23.5774C260.873 23.0828 260.646 22.3811 260.646 21.4722C260.646 20.55 260.867 19.8483 261.308 19.3671C261.749 18.8859 262.451 18.5986 263.413 18.505L267.222 18.104V17.0615C267.222 16.2061 267.035 15.5845 266.661 15.1969C266.3 14.8093 265.745 14.6155 264.997 14.6155C264.235 14.6155 263.179 14.7024 261.829 14.8761L261.208 14.9563L261.147 14.2947C262.644 14.0541 263.927 13.9339 264.997 13.9339C266.948 13.9339 267.924 14.9764 267.924 17.0615ZM263.493 19.1265C262.731 19.2067 262.19 19.4272 261.869 19.7881C261.548 20.149 261.388 20.6903 261.388 21.4121C261.388 22.1338 261.548 22.6952 261.869 23.0962C262.203 23.4838 262.664 23.6776 263.253 23.6776C263.841 23.6776 264.462 23.6108 265.117 23.4771C265.772 23.3301 266.287 23.1897 266.661 23.0561L267.222 22.8556V18.7456L263.493 19.1265Z" fill="#5F5F5F"/>
<path d="M270.154 14.1143H270.895L273.843 23.4972H274.665L277.632 14.1143H278.374L273.782 28.75H273.041L274.484 24.1387H273.261L270.154 14.1143Z" fill="#5F5F5F"/>
<path d="M280.673 24.1387V9.50305H281.375V24.1387H280.673Z" fill="#5F5F5F"/>
<path d="M284.665 24.1387V14.1143H285.366V24.1387H284.665ZM284.665 11.2072V10.1045H285.366V11.2072H284.665Z" fill="#5F5F5F"/>
<path d="M291.408 14.5754C289.617 14.5754 288.722 15.2437 288.722 16.5803C288.722 17.2085 288.909 17.6563 289.283 17.9236C289.657 18.1775 290.486 18.4048 291.769 18.6052C293.052 18.8057 293.948 19.073 294.456 19.4072C294.964 19.7413 295.217 20.4163 295.217 21.4321C295.217 22.4346 294.897 23.1697 294.255 23.6375C293.614 24.0919 292.665 24.3192 291.408 24.3192C290.727 24.3192 289.818 24.239 288.682 24.0786L288.1 23.9984L288.18 23.3368C289.624 23.564 290.773 23.6776 291.629 23.6776C292.484 23.6776 293.172 23.5105 293.694 23.1764C294.215 22.8422 294.476 22.2742 294.476 21.4722C294.476 20.6703 294.268 20.1423 293.854 19.8884C293.453 19.6344 292.618 19.4139 291.348 19.2268C290.092 19.0263 289.216 18.7656 288.722 18.4448C288.227 18.1107 287.98 17.556 287.98 16.7808C287.98 16.0056 288.16 15.4108 288.521 14.9964C288.882 14.5687 289.303 14.288 289.784 14.1544C290.265 14.0074 290.767 13.9339 291.288 13.9339C292.371 13.9339 293.386 14.0074 294.335 14.1544L294.857 14.2346L294.816 14.8962C293.453 14.6823 292.317 14.5754 291.408 14.5754Z" fill="#5F5F5F"/>
<path d="M302.714 14.7559H299.066V20.0087C299.066 21.5457 299.173 22.5482 299.386 23.016C299.614 23.4704 300.121 23.6977 300.91 23.6977L302.875 23.5373L302.935 24.1788C302.053 24.2858 301.378 24.3392 300.91 24.3392C299.961 24.3392 299.299 24.0986 298.925 23.6175C298.551 23.1229 298.364 22.1739 298.364 20.7705V14.7559H296.78V14.1143H298.364V10.8463H299.066V14.1143H302.714V14.7559Z" fill="#5F5F5F"/>
<path d="M309.301 24.1387V10.1045H317.501V10.7862H310.023V16.6204H316.298V17.3021H310.023V23.4571H317.501V24.1387H309.301Z" fill="#5F5F5F"/>
<path d="M327.025 9.50305V24.1387H326.323V23.2967C325.936 23.5506 325.394 23.7845 324.699 23.9984C324.004 24.2122 323.436 24.3192 322.995 24.3192C322.567 24.3192 322.233 24.2991 321.993 24.259C321.766 24.2323 321.478 24.132 321.131 23.9583C320.783 23.7712 320.496 23.5105 320.269 23.1764C320.055 22.8422 319.861 22.341 319.687 21.6727C319.527 21.0044 319.447 20.2092 319.447 19.2869C319.447 17.4691 319.754 16.1259 320.369 15.2571C320.997 14.3749 322.1 13.9339 323.677 13.9339C324.439 13.9339 325.321 14.014 326.323 14.1744V9.50305H327.025ZM321.111 23.016C321.405 23.2833 321.679 23.4638 321.933 23.5573C322.2 23.6375 322.547 23.6776 322.975 23.6776C323.403 23.6776 323.904 23.5907 324.479 23.417C325.067 23.2432 325.521 23.0695 325.842 22.8957L326.323 22.6351V14.816C325.281 14.6556 324.399 14.5754 323.677 14.5754C322.327 14.5754 321.405 14.9563 320.91 15.7182C320.429 16.4801 320.188 17.6696 320.188 19.2869C320.188 21.2116 320.496 22.4546 321.111 23.016Z" fill="#5F5F5F"/>
<path d="M330.186 24.1387V14.1143H330.887V24.1387H330.186ZM330.186 11.2072V10.1045H330.887V11.2072H330.186Z" fill="#5F5F5F"/>
<path d="M338.994 14.7559H335.345V20.0087C335.345 21.5457 335.452 22.5482 335.666 23.016C335.893 23.4704 336.401 23.6977 337.19 23.6977L339.155 23.5373L339.215 24.1788C338.333 24.2858 337.658 24.3392 337.19 24.3392C336.241 24.3392 335.579 24.0986 335.205 23.6175C334.831 23.1229 334.644 22.1739 334.644 20.7705V14.7559H333.06V14.1143H334.644V10.8463H335.345V14.1143H338.994V14.7559Z" fill="#5F5F5F"/>
<path d="M341.456 15.0566C342.071 14.3081 343.12 13.9339 344.604 13.9339C346.088 13.9339 347.137 14.3081 347.752 15.0566C348.366 15.8051 348.674 17.155 348.674 19.1065C348.674 21.0579 348.4 22.4145 347.852 23.1764C347.304 23.9382 346.221 24.3192 344.604 24.3192C342.987 24.3192 341.904 23.9382 341.356 23.1764C340.808 22.4145 340.534 21.0579 340.534 19.1065C340.534 17.155 340.841 15.8051 341.456 15.0566ZM342.82 23.4571C343.261 23.6041 343.855 23.6776 344.604 23.6776C345.352 23.6776 345.941 23.6041 346.368 23.4571C346.809 23.2967 347.143 23.0093 347.371 22.595C347.611 22.1673 347.765 21.6928 347.832 21.1715C347.899 20.6369 347.932 19.8951 347.932 18.9461C347.932 17.262 347.698 16.1125 347.23 15.4977C346.763 14.8828 345.887 14.5754 344.604 14.5754C343.321 14.5754 342.445 14.8828 341.978 15.4977C341.51 16.1125 341.276 17.262 341.276 18.9461C341.276 19.8951 341.309 20.6369 341.376 21.1715C341.443 21.6928 341.59 22.1673 341.817 22.595C342.058 23.0093 342.392 23.2967 342.82 23.4571Z" fill="#5F5F5F"/>
<path d="M351.468 24.1387V14.1143H352.17V15.6781C352.571 15.3573 353.165 15.0165 353.954 14.6556C354.756 14.2814 355.484 14.0341 356.139 13.9138V14.6356C355.551 14.7559 354.923 14.9563 354.255 15.237C353.6 15.5177 353.092 15.7717 352.731 15.9989L352.17 16.3397V24.1387H351.468Z" fill="#5F5F5F"/>
<defs>
<linearGradient id="paint0_linear_1432_4184" x1="12.7314" y1="6.9122" x2="7.49424" y2="6.9122" gradientUnits="userSpaceOnUse">
<stop offset="0.11" stop-color="#F0CA67"/>
<stop offset="0.95" stop-color="#EBA55A"/>
</linearGradient>
<linearGradient id="paint1_linear_1432_4184" x1="19.8884" y1="10.4409" x2="14.4" y2="10.4409" gradientUnits="userSpaceOnUse">
<stop offset="0.13" stop-color="#A8CD5B"/>
<stop offset="1" stop-color="#6AB249"/>
</linearGradient>
<linearGradient id="paint2_linear_1432_4184" x1="18.4321" y1="20.2375" x2="13.195" y2="20.2375" gradientUnits="userSpaceOnUse">
<stop offset="0.03" stop-color="#CCCCCC"/>
<stop offset="0.96" stop-color="#A6A6A6"/>
</linearGradient>
<linearGradient id="paint3_linear_1432_4184" x1="11.4327" y1="16.6065" x2="5.94436" y2="16.6065" gradientUnits="userSpaceOnUse">
<stop offset="0.12" stop-color="#00B6E5"/>
<stop offset="1" stop-color="#009EDB"/>
</linearGradient>
<clipPath id="clip0_1432_4184">
<rect width="115" height="28.75" fill="white"/>
</clipPath>
</defs>
</svg>
