<svg width="277" height="34" viewBox="0 0 277 34" fill="none" xmlns="http://www.w3.org/2000/svg">
<g clip-path="url(#clip0_1203_682)">
<path d="M12.5759 16.1357C12.4296 15.4411 11.9406 14.9588 11.4824 15.0552C11.182 15.117 10.9741 15.418 10.9048 15.8077C10.9818 15.5453 11.1397 15.3485 11.3553 15.3061C11.7365 15.225 12.1408 15.6302 12.2641 16.2051C12.3873 16.784 12.1755 17.3165 11.7943 17.3975C11.5825 17.4438 11.3669 17.3357 11.1897 17.1312C11.4092 17.4515 11.7173 17.629 12.0099 17.5673C12.4681 17.4708 12.7184 16.8303 12.5721 16.1357H12.5759Z" fill="#939598"/>
<path d="M7.14666 11.2736C6.442 9.5063 6.7693 7.47276 7.87826 6.73575C8.98723 5.99874 10.4543 6.83222 11.1589 8.60337C12.1293 11.0382 10.7816 14.0326 10.7816 14.0326C10.7816 14.0326 8.1324 13.7586 7.14666 11.2736Z" fill="url(#paint0_linear_1203_682)"/>
<path d="M14.3318 10.2511C15.4408 9.51407 16.9079 10.3514 17.6125 12.1187C18.3172 13.8899 17.986 15.9195 16.8809 16.6565C15.3522 17.6714 13.0419 15.1632 13.0419 15.1632C13.0419 15.1632 12.7762 11.2891 14.3357 10.2511H14.3318Z" fill="url(#paint1_linear_1203_682)"/>
<path d="M16.2994 21.2792C17.0041 23.0465 16.6768 25.0801 15.5678 25.8171C14.4589 26.5541 12.9918 25.7168 12.2872 23.9495C11.3168 21.5146 12.6645 18.5203 12.6645 18.5203C12.6645 18.5203 15.3099 18.7904 16.2994 21.2792Z" fill="url(#paint2_linear_1203_682)"/>
<path d="M9.02573 22.2053C7.91677 22.9424 6.4497 22.1089 5.74504 20.3377C5.04039 18.5666 5.37154 16.5369 6.47665 15.7999C8.00148 14.785 10.3157 17.2932 10.3157 17.2932C10.3157 17.2932 10.5814 21.1674 9.02188 22.2015L9.02573 22.2053Z" fill="url(#paint3_linear_1203_682)"/>
<path d="M16.0068 29.0199C10.6045 30.7139 4.432 26.3458 2.22178 19.2651C0.219481 12.8557 2.15247 6.41941 6.54596 4C1.15902 5.70941 -1.41701 12.8094 0.789365 19.8786C2.99959 26.9593 9.17205 31.3235 14.5744 29.6334C15.0865 29.4714 15.5717 29.263 16.0299 29.0122C16.0222 29.0122 16.0145 29.016 16.0068 29.0199Z" fill="#939598"/>
<path d="M85.9216 25.5122H79.9185V9.32104H85.9216C86.9073 9.32104 87.7583 9.53713 88.4707 9.96931C89.1869 10.4015 89.749 10.9996 90.1572 11.7636C90.5654 12.5276 90.8619 13.3611 91.0467 14.2641C91.2315 15.167 91.3239 16.1587 91.3239 17.2353C91.3239 18.3118 91.2277 19.3267 91.0351 20.2644C90.8426 21.2059 90.5461 22.0818 90.1457 22.8883C89.7452 23.6986 89.183 24.3392 88.4591 24.8099C87.7352 25.2807 86.8881 25.5161 85.9177 25.5161L85.9216 25.5122ZM89.4872 22.2632C89.8184 21.5146 90.0609 20.7197 90.215 19.8785C90.369 19.0373 90.446 18.0687 90.446 16.9767C90.446 15.8847 90.3189 14.8274 90.0648 13.8203C89.8107 12.8093 89.3293 11.9373 88.6208 11.208C87.9123 10.4748 87.0113 10.1082 85.9216 10.1082H80.7503V24.7289H85.9216C86.7533 24.7289 87.4734 24.5051 88.0818 24.0575C88.6901 23.6099 89.1599 23.0118 89.4911 22.2632H89.4872Z" fill="#E89226"/>
<path d="M99.0597 9.85358C96.322 9.85358 94.9512 10.934 94.9512 13.091C94.9512 14.0634 95.1129 14.7657 95.4363 15.1979C95.6212 15.4294 95.8137 15.6262 96.0139 15.7883C96.2142 15.9503 96.5068 16.0931 96.8919 16.2166C97.5233 16.4018 98.3243 16.5716 99.2946 16.7259C100.973 16.9883 102.175 17.3935 102.906 17.9414C103.638 18.4894 104.004 19.4502 104.004 20.82C104.004 22.5642 103.6 23.8067 102.791 24.5553C101.982 25.3039 100.754 25.6782 99.1098 25.6782C98.0932 25.6782 96.7301 25.5856 95.0243 25.4003L94.1695 25.3077L94.2619 24.4974C96.3836 24.7598 98.0624 24.891 99.2946 24.891C101.848 24.891 103.126 23.5559 103.126 20.8895C103.126 19.7628 102.833 18.9833 102.248 18.555C101.663 18.1228 100.758 17.8141 99.5372 17.6289C98.3127 17.4437 97.4425 17.2777 96.9304 17.1311C96.4144 16.9845 95.9138 16.7568 95.4286 16.4481C94.9435 16.1394 94.5969 15.7188 94.389 15.1863C94.1811 14.6538 94.0771 13.9708 94.0771 13.1373C94.0771 10.4247 95.7405 9.06641 99.0636 9.06641C100.126 9.06641 101.405 9.15902 102.895 9.34423L103.657 9.43684L103.565 10.2472C101.455 9.98478 99.9569 9.85358 99.0636 9.85358H99.0597Z" fill="#E89226"/>
<path d="M28.4904 25.5123V9.70312H32.957L37.7471 23.2549H38.0937V9.70312H40.6505V25.5161H36.2724L31.3667 11.945H31.0433V25.5161H28.4865L28.4904 25.5123Z" fill="#6D6E71"/>
<path d="M44.4856 15.2171C45.275 14.2177 46.5919 13.7161 48.4363 13.7161C50.2807 13.7161 51.5938 14.2177 52.387 15.2171C53.1764 16.2165 53.573 17.7175 53.573 19.7202C53.573 21.7229 53.1879 23.2278 52.4216 24.2426C51.6515 25.2575 50.3269 25.7668 48.4363 25.7668C46.5457 25.7668 45.2211 25.2575 44.451 24.2426C43.6809 23.2278 43.2996 21.719 43.2996 19.7202C43.2996 17.7214 43.6963 16.2204 44.4856 15.2171ZM46.3647 22.7184C46.719 23.3358 47.4082 23.6407 48.4363 23.6407C49.4644 23.6407 50.1575 23.332 50.5079 22.7184C50.8622 22.1049 51.0393 21.0939 51.0393 19.6932C51.0393 18.2925 50.8506 17.3008 50.4733 16.7143C50.0959 16.1278 49.4182 15.8384 48.4363 15.8384C47.4544 15.8384 46.7729 16.1316 46.3994 16.7143C46.022 17.3008 45.8333 18.2925 45.8333 19.6932C45.8333 21.0939 46.0104 22.101 46.3647 22.7184Z" fill="#6D6E71"/>
<path d="M54.7936 13.9709H57.4197L59.6299 23.3669H60.3692L62.6719 13.9709H65.2286L62.2329 25.5124H57.7624L54.7897 13.9709H54.7936Z" fill="#6D6E71"/>
<path d="M67.6352 15.2171C68.4246 14.2177 69.7415 13.7161 71.5859 13.7161C73.4303 13.7161 74.7434 14.2177 75.5366 15.2171C76.326 16.2165 76.7226 17.7175 76.7226 19.7202C76.7226 21.7229 76.3375 23.2278 75.5713 24.2426C74.8011 25.2575 73.4766 25.7668 71.5859 25.7668C69.6953 25.7668 68.3707 25.2575 67.6006 24.2426C66.8305 23.2278 66.4493 21.719 66.4493 19.7202C66.4493 17.7214 66.8459 16.2204 67.6352 15.2171ZM69.5143 22.7184C69.8686 23.3358 70.5578 23.6407 71.5859 23.6407C72.614 23.6407 73.3071 23.332 73.6575 22.7184C74.0118 22.1049 74.1889 21.0939 74.1889 19.6932C74.1889 18.2925 74.0002 17.3008 73.6229 16.7143C73.2455 16.1278 72.5678 15.8384 71.5859 15.8384C70.604 15.8384 69.9225 16.1316 69.549 16.7143C69.1716 17.3008 68.9829 18.2925 68.9829 19.6932C68.9829 21.0939 69.1601 22.101 69.5143 22.7184Z" fill="#6D6E71"/>
</g>
<path d="M124 4.5L124 29.5" stroke="#5F5F5F" stroke-width="0.5"/>
<path d="M150.064 9.90668C147.418 9.90668 146.096 10.9471 146.096 13.0279C146.096 13.9643 146.252 14.6405 146.564 15.0567C146.742 15.2796 146.928 15.4729 147.121 15.6363C147.314 15.785 147.597 15.9187 147.968 16.0376C148.578 16.216 149.351 16.3795 150.287 16.5281C151.907 16.7808 153.066 17.1747 153.765 17.7097C154.478 18.2299 154.835 19.1514 154.835 20.4742C154.835 22.1537 154.441 23.3576 153.653 24.0859C152.881 24.7994 151.699 25.1561 150.109 25.1561C149.128 25.1561 147.812 25.0669 146.163 24.8885L145.338 24.7994L145.427 24.019C147.478 24.2717 149.098 24.3981 150.287 24.3981C152.754 24.3981 153.988 23.1124 153.988 20.5411C153.988 19.4561 153.706 18.7055 153.141 18.2894C152.576 17.8732 151.699 17.576 150.51 17.3976C149.336 17.2192 148.496 17.0632 147.991 16.9294C147.5 16.7808 147.017 16.5578 146.542 16.2606C146.081 15.9633 145.746 15.562 145.538 15.0567C145.345 14.5365 145.248 13.8751 145.248 13.0725C145.248 10.4566 146.854 9.14867 150.064 9.14867C151.09 9.14867 152.323 9.23785 153.765 9.4162L154.501 9.50538L154.411 10.2857C152.375 10.033 150.926 9.90668 150.064 9.90668ZM157.801 25V13.8528H158.581V25H157.801ZM157.801 10.6201V9.39391H158.581V10.6201H157.801ZM170.807 26.8058C170.807 28.0692 170.428 28.9684 169.67 29.5035C168.927 30.0534 167.686 30.3284 165.947 30.3284C164.222 30.3284 163.071 30.0757 162.491 29.5704C161.926 29.0799 161.644 28.1509 161.644 26.7836C161.644 25.9364 161.926 25.2601 162.491 24.7548C162.699 24.5615 163.048 24.2866 163.539 23.9299C163.212 23.7218 163.048 23.2387 163.048 22.4807C163.048 22.2726 163.219 21.8119 163.561 21.0985L163.717 20.7418C162.439 20.3256 161.8 19.196 161.8 17.353C161.8 14.8709 163.071 13.6298 165.612 13.6298C166.385 13.6298 167.069 13.7042 167.663 13.8528L167.975 13.9197L171.097 13.8528V14.6331H168.689C169.283 15.183 169.581 16.112 169.581 17.4199C169.581 18.713 169.254 19.6345 168.6 20.1844C167.961 20.7343 166.935 21.0093 165.523 21.0093C165.077 21.0093 164.676 20.9796 164.319 20.9201C163.977 21.7673 163.806 22.3024 163.806 22.5253C163.806 22.7483 163.821 22.9192 163.851 23.0381C163.881 23.157 163.94 23.2685 164.029 23.3725C164.118 23.4765 164.289 23.5434 164.542 23.5732C165.003 23.6475 165.872 23.6846 167.15 23.6846C168.429 23.6846 169.358 23.8927 169.937 24.3089C170.517 24.7102 170.807 25.5425 170.807 26.8058ZM162.446 26.7613C162.446 27.8611 162.677 28.6117 163.137 29.013C163.613 29.4143 164.564 29.6149 165.991 29.6149C167.433 29.6149 168.458 29.3994 169.068 28.9684C169.677 28.5522 169.982 27.8314 169.982 26.8058C169.982 25.7952 169.759 25.1412 169.313 24.8439C168.867 24.5467 168.035 24.3981 166.816 24.3981L164.118 24.3312C163.45 24.7919 163.004 25.1784 162.781 25.4905C162.558 25.8175 162.446 26.2411 162.446 26.7613ZM162.602 17.353C162.602 18.4529 162.833 19.2183 163.294 19.6493C163.754 20.0804 164.542 20.2959 165.657 20.2959C166.786 20.2959 167.582 20.0878 168.042 19.6716C168.518 19.2406 168.756 18.4677 168.756 17.353C168.756 16.2383 168.518 15.458 168.042 15.0121C167.582 14.5662 166.786 14.3433 165.657 14.3433C164.542 14.3433 163.754 14.5736 163.294 15.0344C162.833 15.4803 162.602 16.2532 162.602 17.353ZM174.061 25H173.281V13.8528H174.061V14.7446C175.384 14.0163 176.737 13.6521 178.119 13.6521C179.501 13.6521 180.43 14.0311 180.906 14.7892C181.381 15.5323 181.619 17.0037 181.619 19.2035V25H180.839V19.248C180.839 17.2861 180.66 15.9856 180.304 15.3465C179.947 14.6925 179.167 14.3656 177.963 14.3656C177.368 14.3656 176.744 14.4622 176.09 14.6554C175.451 14.8337 174.953 15.0121 174.596 15.1905L174.061 15.4803V25ZM192.439 17.1301V23.5509C192.499 24.0859 193.056 24.3981 194.112 24.4872L194.067 25.1784C192.982 25.1784 192.217 24.8662 191.771 24.242C190.255 24.8811 188.753 25.2006 187.267 25.2006C186.346 25.2006 185.625 24.9257 185.105 24.3758C184.599 23.8258 184.347 23.0455 184.347 22.0348C184.347 21.0093 184.592 20.229 185.082 19.6939C185.573 19.1589 186.353 18.8393 187.423 18.7353L191.659 18.2894V17.1301C191.659 16.1788 191.451 15.4877 191.035 15.0567C190.634 14.6257 190.017 14.4102 189.185 14.4102C188.337 14.4102 187.163 14.5068 185.662 14.7L184.971 14.7892L184.904 14.0534C186.569 13.7859 187.995 13.6521 189.185 13.6521C191.354 13.6521 192.439 14.8115 192.439 17.1301ZM187.512 19.4264C186.665 19.5156 186.063 19.7608 185.707 20.1621C185.35 20.5634 185.172 21.1654 185.172 21.968C185.172 22.7706 185.35 23.3948 185.707 23.8407C186.078 24.2717 186.591 24.4872 187.245 24.4872C187.899 24.4872 188.59 24.4129 189.318 24.2643C190.047 24.1008 190.619 23.9447 191.035 23.7961L191.659 23.5732V19.0028L187.512 19.4264ZM204.771 26.8058C204.771 28.0692 204.392 28.9684 203.634 29.5035C202.891 30.0534 201.65 30.3284 199.911 30.3284C198.187 30.3284 197.035 30.0757 196.455 29.5704C195.89 29.0799 195.608 28.1509 195.608 26.7836C195.608 25.9364 195.89 25.2601 196.455 24.7548C196.663 24.5615 197.012 24.2866 197.503 23.9299C197.176 23.7218 197.012 23.2387 197.012 22.4807C197.012 22.2726 197.183 21.8119 197.525 21.0985L197.681 20.7418C196.403 20.3256 195.764 19.196 195.764 17.353C195.764 14.8709 197.035 13.6298 199.576 13.6298C200.349 13.6298 201.033 13.7042 201.627 13.8528L201.94 13.9197L205.061 13.8528V14.6331H202.653C203.247 15.183 203.545 16.112 203.545 17.4199C203.545 18.713 203.218 19.6345 202.564 20.1844C201.925 20.7343 200.899 21.0093 199.487 21.0093C199.041 21.0093 198.64 20.9796 198.283 20.9201C197.941 21.7673 197.77 22.3024 197.77 22.5253C197.77 22.7483 197.785 22.9192 197.815 23.0381C197.845 23.157 197.904 23.2685 197.993 23.3725C198.083 23.4765 198.254 23.5434 198.506 23.5732C198.967 23.6475 199.836 23.6846 201.115 23.6846C202.393 23.6846 203.322 23.8927 203.901 24.3089C204.481 24.7102 204.771 25.5425 204.771 26.8058ZM196.411 26.7613C196.411 27.8611 196.641 28.6117 197.102 29.013C197.577 29.4143 198.528 29.6149 199.955 29.6149C201.397 29.6149 202.423 29.3994 203.032 28.9684C203.641 28.5522 203.946 27.8314 203.946 26.8058C203.946 25.7952 203.723 25.1412 203.277 24.8439C202.831 24.5467 201.999 24.3981 200.78 24.3981L198.083 24.3312C197.414 24.7919 196.968 25.1784 196.745 25.4905C196.522 25.8175 196.411 26.2411 196.411 26.7613ZM196.567 17.353C196.567 18.4529 196.797 19.2183 197.258 19.6493C197.718 20.0804 198.506 20.2959 199.621 20.2959C200.75 20.2959 201.546 20.0878 202.006 19.6716C202.482 19.2406 202.72 18.4677 202.72 17.353C202.72 16.2383 202.482 15.458 202.006 15.0121C201.546 14.5662 200.75 14.3433 199.621 14.3433C198.506 14.3433 197.718 14.5736 197.258 15.0344C196.797 15.4803 196.567 16.2532 196.567 17.353ZM214.379 24.3312L215.048 24.2866L215.093 25C213.428 25.1338 212.053 25.2006 210.968 25.2006C209.393 25.1858 208.3 24.7102 207.691 23.7738C207.082 22.8226 206.777 21.3734 206.777 19.4264C206.777 15.5769 208.278 13.6521 211.28 13.6521C212.692 13.6521 213.748 14.0757 214.446 14.9229C215.16 15.7701 215.516 17.1301 215.516 19.0028V19.7385H207.602C207.602 21.3437 207.854 22.5402 208.36 23.3279C208.865 24.1008 209.705 24.4872 210.879 24.4872C212.053 24.4872 213.22 24.4352 214.379 24.3312ZM207.602 19.0251H214.691C214.691 17.3456 214.416 16.1491 213.867 15.4357C213.331 14.7223 212.469 14.3656 211.28 14.3656C208.828 14.3656 207.602 15.9187 207.602 19.0251ZM223.624 25V9.39391H232.743V10.1519H224.427V16.6396H231.405V17.3976H224.427V24.242H232.743V25H223.624ZM243.333 8.72508V25H242.553V24.0636C242.122 24.346 241.52 24.6061 240.747 24.8439C239.974 25.0817 239.343 25.2006 238.852 25.2006C238.377 25.2006 238.005 25.1784 237.738 25.1338C237.485 25.104 237.165 24.9926 236.779 24.7994C236.392 24.5913 236.073 24.3014 235.82 23.9299C235.582 23.5583 235.367 23.0009 235.174 22.2578C234.995 21.5146 234.906 20.6303 234.906 19.6048C234.906 17.5834 235.248 16.0897 235.932 15.1236C236.63 14.1426 237.856 13.6521 239.61 13.6521C240.457 13.6521 241.438 13.7413 242.553 13.9197V8.72508H243.333ZM236.757 23.7515C237.084 24.0488 237.388 24.2494 237.671 24.3535C237.968 24.4426 238.354 24.4872 238.83 24.4872C239.306 24.4872 239.863 24.3906 240.502 24.1974C241.156 24.0042 241.661 23.811 242.018 23.6177L242.553 23.3279V14.6331C241.394 14.4547 240.413 14.3656 239.61 14.3656C238.109 14.3656 237.084 14.7892 236.534 15.6363C235.999 16.4835 235.731 17.8063 235.731 19.6048C235.731 21.745 236.073 23.1273 236.757 23.7515ZM246.848 25V13.8528H247.628V25H246.848ZM246.848 10.6201V9.39391H247.628V10.6201H246.848ZM256.643 14.5662H252.586V20.4074C252.586 22.1166 252.705 23.2313 252.943 23.7515C253.195 24.2569 253.76 24.5095 254.637 24.5095L256.822 24.3312L256.889 25.0446C255.908 25.1635 255.157 25.2229 254.637 25.2229C253.582 25.2229 252.846 24.9554 252.43 24.4203C252.014 23.8704 251.806 22.8151 251.806 21.2545V14.5662H250.044V13.8528H251.806V10.2188H252.586V13.8528H256.643V14.5662ZM259.381 14.9006C260.065 14.0683 261.232 13.6521 262.881 13.6521C264.531 13.6521 265.698 14.0683 266.382 14.9006C267.065 15.733 267.407 17.2341 267.407 19.4041C267.407 21.5741 267.102 23.0827 266.493 23.9299C265.884 24.7771 264.68 25.2006 262.881 25.2006C261.083 25.2006 259.879 24.7771 259.27 23.9299C258.66 23.0827 258.356 21.5741 258.356 19.4041C258.356 17.2341 258.697 15.733 259.381 14.9006ZM260.897 24.242C261.388 24.4055 262.049 24.4872 262.881 24.4872C263.714 24.4872 264.368 24.4055 264.843 24.242C265.334 24.0636 265.705 23.7441 265.958 23.2833C266.225 22.8077 266.396 22.2801 266.471 21.7004C266.545 21.1059 266.582 20.281 266.582 19.2257C266.582 17.353 266.322 16.0748 265.802 15.3911C265.282 14.7074 264.308 14.3656 262.881 14.3656C261.454 14.3656 260.481 14.7074 259.961 15.3911C259.441 16.0748 259.18 17.353 259.18 19.2257C259.18 20.281 259.218 21.1059 259.292 21.7004C259.366 22.2801 259.53 22.8077 259.782 23.2833C260.05 23.7441 260.421 24.0636 260.897 24.242ZM270.514 25V13.8528H271.294V15.5918C271.74 15.235 272.402 14.856 273.279 14.4547C274.17 14.0386 274.98 13.7636 275.709 13.6298V14.4324C275.055 14.5662 274.356 14.7892 273.613 15.1013C272.885 15.4134 272.32 15.6958 271.919 15.9485L271.294 16.3275V25H270.514Z" fill="#5F5F5F"/>
<defs>
<linearGradient id="paint0_linear_1203_682" x1="11.5132" y1="10.251" x2="6.777" y2="10.251" gradientUnits="userSpaceOnUse">
<stop offset="0.11" stop-color="#F0CA67"/>
<stop offset="0.95" stop-color="#EBA55A"/>
</linearGradient>
<linearGradient id="paint1_linear_1203_682" x1="17.986" y1="13.4422" x2="13.0226" y2="13.4422" gradientUnits="userSpaceOnUse">
<stop offset="0.13" stop-color="#A8CD5B"/>
<stop offset="1" stop-color="#6AB249"/>
</linearGradient>
<linearGradient id="paint2_linear_1203_682" x1="16.6691" y1="22.3018" x2="11.9329" y2="22.3018" gradientUnits="userSpaceOnUse">
<stop offset="0.03" stop-color="#CCCCCC"/>
<stop offset="0.96" stop-color="#A6A6A6"/>
</linearGradient>
<linearGradient id="paint3_linear_1203_682" x1="10.3388" y1="19.018" x2="5.37539" y2="19.018" gradientUnits="userSpaceOnUse">
<stop offset="0.12" stop-color="#00B6E5"/>
<stop offset="1" stop-color="#009EDB"/>
</linearGradient>
<clipPath id="clip0_1203_682">
<rect width="104" height="26" fill="white" transform="translate(0 4)"/>
</clipPath>
</defs>
</svg>
